<svg id="Layer_1" xmlns="http://www.w3.org/2000/svg" viewBox="0 0 16 16.01">
  <defs>
      <style>
          .cls-1 {
              fill: none;
          }

          .cls-1,.cls-2 {
              stroke-width: 0px;
          }

          .cls-2 {
              fill: #fff;
          }
      </style>
  </defs>
  <path class="cls-2" d="m1.29,4.48l.73-1.1c.07-.1.11-.1.18-.07,1.62.93,3.07,1.07,4.56.42,1.49-.64,2.38-1.78,2.81-3.58.05-.16.11-.16.15-.16l1.28.28c.22.05.21.11.2.16-.28,2.1-1.74,3.95-3.81,4.82-2.1.9-4.38.7-6.1-.53-.03-.03-.11-.11-.02-.25Zm6.4,10.62l1.32.07c.22,0,.23-.05.23-.1.28-2.1-.63-4.27-2.39-5.66-1.78-1.43-4.03-1.84-6.02-1.11-.04.02-.14.08-.09.24l.42,1.25c.04.11.08.13.16.11,1.81-.47,3.24-.21,4.51.81,1.26,1.01,1.82,2.35,1.76,4.2,0,.16.06.18.1.18Zm.84-8.77c-.06,0-.12-.01-.18-.01-.27,0-.52.08-.72.24-.25.19-.41.48-.46.81-.04.32.04.64.23.89.19.26.48.42.81.47.66.09,1.27-.38,1.36-1.04.09-.67-.36-1.27-1.04-1.36Zm6.57-2.21l-.61-1.17c-.09-.19-.16-.17-.23-.15-1.95.84-3.3,2.69-3.61,4.95-.31,2.26.5,4.41,2.17,5.74.04.03.07.04.12.04.05,0,.1-.03.13-.07l.86-1.03c.08-.1.05-.15,0-.19-1.35-1.33-1.85-2.64-1.63-4.27.22-1.63,1.08-2.8,2.71-3.68.13-.08.11-.14.1-.17Z"/>
  <rect class="cls-1" y="0" width="16" height="15.99"/>
</svg>
